<?xml version="1.0" encoding="utf-8"?>
<!-- Generator: Adobe Illustrator 17.1.0, SVG Export Plug-In . SVG Version: 6.00 Build 0)  -->
<!DOCTYPE svg PUBLIC "-//W3C//DTD SVG 1.1//EN" "http://www.w3.org/Graphics/SVG/1.1/DTD/svg11.dtd">
<svg version="1.1" id="Layer_1" xmlns="http://www.w3.org/2000/svg" xmlns:xlink="http://www.w3.org/1999/xlink" x="0px" y="0px"
	 viewBox="0 0 1000 1000" enable-background="new 0 0 1000 1000" xml:space="preserve">
<rect fill="#4D4D4D" width="1000" height="1000"/>
<radialGradient id="SVGID_1_" cx="508.3232" cy="484.2886" r="468.5569" gradientUnits="userSpaceOnUse">
	<stop  offset="0.7388" style="stop-color:#FFFFFF;stop-opacity:0"/>
	<stop  offset="0.8057" style="stop-color:#FFFFFF;stop-opacity:0.4301"/>
	<stop  offset="0.8165" style="stop-color:#FFFFFF;stop-opacity:0.5"/>
	<stop  offset="0.8231" style="stop-color:#DBC01F"/>
	<stop  offset="0.8304" style="stop-color:#F1DC3A"/>
	<stop  offset="0.835" style="stop-color:#F5E13F"/>
	<stop  offset="0.8386" style="stop-color:#DBC01F"/>
	<stop  offset="0.8523" style="stop-color:#E1CB46"/>
	<stop  offset="0.872" style="stop-color:#E9D976"/>
	<stop  offset="0.8922" style="stop-color:#F0E4A0"/>
	<stop  offset="0.9126" style="stop-color:#F5EEC3"/>
	<stop  offset="0.9332" style="stop-color:#FAF5DD"/>
	<stop  offset="0.9543" style="stop-color:#FDFBF0"/>
	<stop  offset="0.976" style="stop-color:#FEFEFB"/>
	<stop  offset="0.9993" style="stop-color:#FFFFFF"/>
</radialGradient>
<circle fill="#00C984" stroke="url(#SVGID_1_)" stroke-width="12" stroke-miterlimit="10" cx="508.3" cy="484.3" r="462.6"/>
<g>
	<polygon fill="#1A1A1A" points="226.4,758.4 478,601.5 478,540.9 198.8,714.7 	"/>
	<path fill="#1A1A1A" d="M293.5,767.7l-2,1.5l-41.6,26l-18.3,11.4c-10.2,6.3-23.5,3.2-29.8-7l-81.8-131.7c-3-4.9-3.9-10.7-2.6-16.3
		c1.3-5.6,4.8-10.4,9.6-13.5l1.3-1.4L478,419V256.6c0-8.8-3.4-16.8-11.1-21.5C355.6,166.9,175,148.2,84.2,143
		C53.7,141.3,28,164.5,28,193.9v559.5c0,26.9,22.5,49.3,50.5,50.8c82,4.3,247.1,20.1,361.7,77.7c17.6,8.9,37.8-3.2,37.8-22.3V652.5
		L293.5,767.7z"/>
	<path fill="#1A1A1A" d="M847.5,337.5L820.5,294l-77,11.9L532,437v45.5l204-126.4c2.6-1.6,5.7-2,8.4-1.4c2.7,0.6,5.2,2.3,6.8,4.9
		c3.1,5.1,1.2,11.7-3.9,14.9L532,508v60.5l270.5-167.8L847.5,337.5z"/>
	<path fill="#1A1A1A" d="M926.8,143c-90.7,5.1-271.2,23.9-382.6,92.1c-7.7,4.7-12.2,13.1-12.2,21.8v129.2l192.5-119.3
		c2.4-1.6,5.4-2.6,8.3-3l71.6-11.1l124.5-19.3c2.8-0.4,5.6-0.3,8.3,0.3c5.4,1.3,10.3,4.7,13.4,9.6c4.6,7.4,4.4,16.8-0.7,23.9
		L835.8,429.4c-1.7,2.4-4.3,4.4-6.7,6L532,619.6v239.8c0,19.1,21.4,31.2,39,22.3c114.6-57.7,279.8-73.4,361.7-77.7
		c28-1.5,49.3-23.9,49.3-50.8V193.9C982,164.5,957.3,141.3,926.8,143z"/>
	<polygon fill="#1A1A1A" points="187.8,696.3 478,515.5 478,469.9 166.9,663.5 	"/>
</g>
</svg>
